<svg width="32" height="32" viewBox="0 0 56 56" fill="none" xmlns="http://www.w3.org/2000/svg">
<circle cx="28" cy="28" r="28" fill="#2B2B2B" fill-opacity="0.9"/>
<path fill-rule="evenodd" clip-rule="evenodd" d="M31.751 33.4804C29.7896 35.0048 27.3213 35.7239 24.8487 35.4914C22.376 35.2589 20.0848 34.0922 18.4418 32.2289C16.7987 30.3655 15.9272 27.9457 16.0048 25.4621C16.0823 22.9785 17.1031 20.6178 18.8593 18.8607C20.6154 17.1037 22.9749 16.0824 25.4573 16.0048C27.9396 15.9272 30.3582 16.7991 32.2206 18.443C34.083 20.0869 35.2491 22.3792 35.4815 24.8532C35.7139 27.3271 34.9951 29.7967 33.4715 31.759L40 38.2663L38.2672 40L31.7632 33.4804H31.751ZM25.7716 33.0898C26.7331 33.0898 27.6852 32.9003 28.5735 32.5321C29.4618 32.164 30.2689 31.6244 30.9488 30.9442C31.6287 30.264 32.168 29.4564 32.5359 28.5677C32.9039 27.6789 33.0933 26.7264 33.0933 25.7644C33.0933 24.8024 32.9039 23.8499 32.5359 22.9611C32.168 22.0724 31.6287 21.2648 30.9488 20.5846C30.2689 19.9044 29.4618 19.3648 28.5735 18.9967C27.6852 18.6285 26.7331 18.439 25.7716 18.439C23.8298 18.439 21.9675 19.2108 20.5945 20.5846C19.2214 21.9584 18.45 23.8216 18.45 25.7644C18.45 27.7072 19.2214 29.5704 20.5945 30.9442C21.9675 32.318 23.8298 33.0898 25.7716 33.0898ZM24.5514 24.5435V22.1017H26.9919V24.5435H29.4324V26.9853H26.9919V29.4271H24.5514V26.9853H22.1108V24.5435H24.5514Z" fill="white"/>
</svg>
