<svg width="511" height="512" viewBox="0 0 511 512" fill="none" xmlns="http://www.w3.org/2000/svg">
<path fill-rule="evenodd" clip-rule="evenodd" d="M245.806 0.535581C198.676 7.20858 162.261 40.6276 151.33 87.2396C149.529 94.9206 149.2 100.342 148.766 129.55L148.268 163.05L145.414 166.05C143.844 167.7 141.582 171.263 140.387 173.968C138.57 178.081 138.323 179.942 138.877 185.348C140.523 201.415 148.06 227.102 152.23 230.86C153.566 232.065 155.489 233.812 156.503 234.744C157.516 235.676 158.607 238.151 158.926 240.244C162.908 266.334 169.982 281.854 184.362 296.05C187.757 299.401 190.442 302.933 190.446 304.05C190.46 308.781 185.025 325.668 180.494 334.968C174.687 346.887 168.079 355.566 161.758 359.574C158.946 361.357 138.466 368.699 108.571 378.64C81.8326 387.531 56.8066 396.257 52.9566 398.031C38.0576 404.897 25.9636 416.822 18.5396 431.967C15.4936 438.179 12.7966 447.161 6.88463 470.774C-0.155373 498.895 -0.697373 501.765 0.494627 504.642C1.21163 506.372 3.18263 508.632 4.87663 509.665C7.86763 511.488 15.0646 511.543 254.739 511.546C528.573 511.55 507.072 512.11 510.084 504.899C511.608 501.254 511.481 500.542 503.988 470.613C495.416 436.373 492.385 428.701 482.874 417.171C476.99 410.037 468.171 402.967 459.957 398.799C457.207 397.404 432.327 388.703 404.668 379.464C377.01 370.225 352.896 361.748 351.082 360.627C343.132 355.714 333.54 342.814 327.936 329.5C324.971 322.455 320.457 307.158 320.457 304.154C320.457 302.834 322.653 299.836 326.052 296.516C333.079 289.651 340.716 278.501 344.53 269.537C347.71 262.065 351.439 247.831 351.45 243.121C351.461 238.382 353.488 234.192 356.805 232.047C362.082 228.635 368.977 208.391 371.618 188.555C372.67 180.657 372.603 179.22 370.984 174.982C369.989 172.376 367.721 168.624 365.945 166.646L362.716 163.05L362.183 127.55C361.588 87.8756 360.668 80.2056 355.051 68.0496C353.141 63.9156 349.524 58.5736 346.215 55.0006C342.022 50.4726 340.071 47.3296 338.458 42.5006C329.946 17.0346 302.612 1.68558 262.957 0.103581C256.907 -0.137419 249.189 0.0565812 245.806 0.535581Z" fill="#5E5E5E"/>
</svg>
