<svg width="24" height="24" viewBox="0 0 84 77" fill="none" xmlns="http://www.w3.org/2000/svg">
<path d="M66.7059 77H71.6471L68.6824 73.15C66.7059 70.5031 65.4706 67.1344 64.7294 63.0438C77.0824 57.5094 84 47.1625 84 33.6875C84 12.9937 67.9412 0 42 0C16.0588 0 0 12.9937 0 33.6875C0 54.8625 15.8118 67.375 42 67.375H43.7294C47.6824 71.9469 54.6 77 66.7059 77ZM42 4.8125C65.2235 4.8125 79.0588 15.6406 79.0588 33.6875C79.0588 49.0875 69.4235 56.3063 61.2706 59.4344L59.5412 60.1562L59.7882 62.0812C60.2824 65.9313 61.0235 69.3 62.5059 72.1875C54.3529 71.225 49.6588 67.1344 46.9412 63.7656L46.2 62.8031H42C8.64706 62.8031 4.94118 42.5906 4.94118 33.9281C4.94118 15.6406 18.7765 4.8125 42 4.8125Z" fill="black"/>
</svg>
