<svg width="24" height="24" viewBox="0 0 84 77" fill="none" xmlns="http://www.w3.org/2000/svg">
<path d="M83.9923 1.46106C83.9747 1.33267 83.9573 1.20413 83.9048 1.07574C83.8872 1.02757 83.8698 0.963302 83.8523 0.915136C83.7648 0.738581 83.6422 0.577981 83.5022 0.433486C83.3446 0.305096 83.1694 0.19266 82.9769 0.112435C82.9244 0.0963301 82.8543 0.0642703 82.8018 0.0642703C82.6618 0.0322104 82.5216 0 82.3816 0C82.3115 0 82.259 0 82.189 0C82.0315 0 81.8563 0.0320599 81.6988 0.0802249C81.6638 0.0963301 81.6287 0.0963302 81.5937 0.112285H81.5761L1.05633 32.1904C0.163419 32.5436 -0.239213 33.4908 0.145856 34.3096C0.303429 34.6468 0.583614 34.9197 0.933721 35.0803L30.2073 49.289L45.7196 76.133C46.0172 76.6628 46.6125 76.9839 47.2604 77H47.3304C47.9957 76.9839 48.591 76.5986 48.8712 76.0367L83.8697 2.21559V2.19949C83.8872 2.16743 83.8872 2.13522 83.9046 2.10316C83.9571 1.95866 83.9921 1.81417 83.9921 1.65357C83.9923 1.58945 84.0097 1.52518 83.9923 1.46106ZM5.80092 33.7798L74.5553 6.37389L31.2051 46.1101L5.80092 33.7798ZM47.1376 71.6857L33.6913 48.3899L77.0239 8.63765L47.1376 71.6857Z" fill="black"/>
</svg>
