<svg width="24" height="24" viewBox="0 0 84 77" fill="none" xmlns="http://www.w3.org/2000/svg">
<path d="M83.8612 22.9606C82.635 9.65506 73.0826 0.00159279 61.128 0.00159279C53.1637 0.00159279 45.8714 4.22708 41.768 10.9993C37.7019 4.13948 30.7084 0 22.8717 0C10.9187 0 1.3647 9.65347 0.140165 22.959C0.0432358 23.5468 -0.354174 26.6398 0.85421 31.684C2.5957 38.9595 6.61827 45.5772 12.4841 50.8173L41.7486 77L71.5156 50.8189C77.3814 45.5772 81.404 38.9611 83.1455 31.684C84.3539 26.6414 83.9565 23.5484 83.8612 22.9606ZM80.0001 30.9545C78.4105 37.5993 74.7256 43.6532 69.3541 48.4505L41.768 72.7156L14.6553 48.4569C9.27413 43.6501 5.59082 37.5977 3.99956 30.9529C2.8558 26.1795 3.3259 23.483 3.32752 23.4655L3.35175 23.3047C4.40182 11.6476 12.6101 3.18544 22.8717 3.18544C30.4435 3.18544 37.109 7.77247 40.2721 15.1547L41.76 18.6316L43.2478 15.1547C46.3609 7.88555 53.3785 3.18703 61.1296 3.18703C71.3896 3.18703 79.5995 11.6491 80.6706 23.4576C80.6738 23.483 81.1439 26.1811 80.0001 30.9545Z" fill="black"/>
</svg>
