<?xml version="1.0" encoding="iso-8859-1"?>
<!-- Generator: Adobe Illustrator 19.0.0, SVG Export Plug-In . SVG Version: 6.00 Build 0)  -->
<svg version="1.1" id="Layer_1" xmlns="http://www.w3.org/2000/svg" xmlns:xlink="http://www.w3.org/1999/xlink" x="0px" y="0px"
	 viewBox="0 0 512 512" style="enable-background:new 0 0 512 512;" xml:space="preserve">
<g>
	<g>
		<path d="M256,0C114.837,0,0,114.843,0,256s114.837,256,256,256s256-114.843,256-256S397.163,0,256,0z M289.391,389.565
			c0,18.442-14.949,33.391-33.391,33.391s-33.391-14.949-33.391-33.391V222.609c0-18.442,14.949-33.391,33.391-33.391
			s33.391,14.949,33.391,33.391V389.565z M256,155.826c-18.442,0-33.391-14.949-33.391-33.391S237.558,89.044,256,89.044
			s33.391,14.949,33.391,33.391S274.442,155.826,256,155.826z"/>
	</g>
</g>
<g>
</g>
<g>
</g>
<g>
</g>
<g>
</g>
<g>
</g>
<g>
</g>
<g>
</g>
<g>
</g>
<g>
</g>
<g>
</g>
<g>
</g>
<g>
</g>
<g>
</g>
<g>
</g>
<g>
</g>
</svg>
